<mxfile host="app.diagrams.net" modified="2023-07-10T07:28:16.135Z" agent="Mozilla/5.0 (Windows NT 10.0; Win64; x64; rv:109.0) Gecko/20100101 Firefox/114.0" etag="BMPg_y1XyDKwU3pDuOry" version="21.6.1" type="device">
  <diagram name="Pagina-1" id="tAl2R-MyksITdD3vTQWO">
    <mxGraphModel dx="1567" dy="989" grid="0" gridSize="10" guides="1" tooltips="1" connect="1" arrows="1" fold="1" page="0" pageScale="1" pageWidth="827" pageHeight="1169" math="0" shadow="0">
      <root>
        <mxCell id="0" />
        <mxCell id="1" parent="0" />
        <mxCell id="Vi3ZRumh8DsF4_LrH-LR-1" value="User" style="shape=umlActor;verticalLabelPosition=bottom;verticalAlign=top;html=1;outlineConnect=0;fontSize=16;" parent="1" vertex="1">
          <mxGeometry x="-212" y="197" width="30" height="60" as="geometry" />
        </mxCell>
        <mxCell id="Vi3ZRumh8DsF4_LrH-LR-13" style="edgeStyle=none;curved=1;rounded=0;orthogonalLoop=1;jettySize=auto;html=1;exitX=1;exitY=0.5;exitDx=0;exitDy=0;entryX=0;entryY=0.5;entryDx=0;entryDy=0;fontSize=12;startSize=8;endSize=8;" parent="1" source="Vi3ZRumh8DsF4_LrH-LR-4" target="Vi3ZRumh8DsF4_LrH-LR-33" edge="1">
          <mxGeometry relative="1" as="geometry">
            <mxPoint x="224.99999999999977" y="45" as="targetPoint" />
          </mxGeometry>
        </mxCell>
        <mxCell id="Vi3ZRumh8DsF4_LrH-LR-4" value="Download" style="ellipse;whiteSpace=wrap;html=1;fontSize=16;" parent="1" vertex="1">
          <mxGeometry x="-3" y="5" width="120" height="80" as="geometry" />
        </mxCell>
        <mxCell id="Vi3ZRumh8DsF4_LrH-LR-28" style="edgeStyle=none;curved=1;rounded=0;orthogonalLoop=1;jettySize=auto;html=1;exitX=0.5;exitY=0;exitDx=0;exitDy=0;entryX=0.5;entryY=1;entryDx=0;entryDy=0;fontSize=12;startSize=8;endSize=8;" parent="1" source="Vi3ZRumh8DsF4_LrH-LR-5" target="Vi3ZRumh8DsF4_LrH-LR-4" edge="1">
          <mxGeometry relative="1" as="geometry" />
        </mxCell>
        <mxCell id="Vi3ZRumh8DsF4_LrH-LR-31" value="&lt;div align=&quot;right&quot;&gt;&lt;br&gt;&lt;/div&gt;" style="edgeLabel;html=1;align=center;verticalAlign=middle;resizable=0;points=[];fontSize=16;" parent="Vi3ZRumh8DsF4_LrH-LR-28" vertex="1" connectable="0">
          <mxGeometry x="-0.2165" y="2" relative="1" as="geometry">
            <mxPoint as="offset" />
          </mxGeometry>
        </mxCell>
        <mxCell id="Vi3ZRumh8DsF4_LrH-LR-29" style="edgeStyle=none;curved=1;rounded=0;orthogonalLoop=1;jettySize=auto;html=1;exitX=0.5;exitY=1;exitDx=0;exitDy=0;fontSize=12;startSize=8;endSize=8;" parent="1" source="Vi3ZRumh8DsF4_LrH-LR-5" target="Vi3ZRumh8DsF4_LrH-LR-6" edge="1">
          <mxGeometry relative="1" as="geometry" />
        </mxCell>
        <mxCell id="Vi3ZRumh8DsF4_LrH-LR-5" value="Download ed estrazione" style="ellipse;whiteSpace=wrap;html=1;fontSize=16;" parent="1" vertex="1">
          <mxGeometry x="-3" y="130" width="120" height="80" as="geometry" />
        </mxCell>
        <mxCell id="Vi3ZRumh8DsF4_LrH-LR-30" style="edgeStyle=none;curved=1;rounded=0;orthogonalLoop=1;jettySize=auto;html=1;exitX=1;exitY=0.5;exitDx=0;exitDy=0;entryX=0;entryY=0.5;entryDx=0;entryDy=0;fontSize=12;startSize=8;endSize=8;" parent="1" source="Vi3ZRumh8DsF4_LrH-LR-6" target="Vi3ZRumh8DsF4_LrH-LR-34" edge="1">
          <mxGeometry relative="1" as="geometry">
            <mxPoint x="224.99999999999977" y="219" as="targetPoint" />
          </mxGeometry>
        </mxCell>
        <mxCell id="Vi3ZRumh8DsF4_LrH-LR-6" value="Estrazione" style="ellipse;whiteSpace=wrap;html=1;fontSize=16;" parent="1" vertex="1">
          <mxGeometry x="-3" y="257" width="120" height="80" as="geometry" />
        </mxCell>
        <mxCell id="Vi3ZRumh8DsF4_LrH-LR-7" value="Help" style="ellipse;whiteSpace=wrap;html=1;fontSize=16;" parent="1" vertex="1">
          <mxGeometry x="-3" y="380" width="120" height="80" as="geometry" />
        </mxCell>
        <mxCell id="Vi3ZRumh8DsF4_LrH-LR-8" value="" style="endArrow=classic;html=1;rounded=0;fontSize=12;startSize=8;endSize=8;curved=1;entryX=0;entryY=0.538;entryDx=0;entryDy=0;entryPerimeter=0;" parent="1" target="Vi3ZRumh8DsF4_LrH-LR-4" edge="1">
          <mxGeometry width="50" height="50" relative="1" as="geometry">
            <mxPoint x="-177" y="207" as="sourcePoint" />
            <mxPoint x="-129" y="177" as="targetPoint" />
          </mxGeometry>
        </mxCell>
        <mxCell id="Vi3ZRumh8DsF4_LrH-LR-9" value="" style="endArrow=classic;html=1;rounded=0;fontSize=12;startSize=8;endSize=8;curved=1;entryX=0;entryY=0.5;entryDx=0;entryDy=0;" parent="1" target="Vi3ZRumh8DsF4_LrH-LR-5" edge="1">
          <mxGeometry width="50" height="50" relative="1" as="geometry">
            <mxPoint x="-177" y="222" as="sourcePoint" />
            <mxPoint x="6" y="66" as="targetPoint" />
          </mxGeometry>
        </mxCell>
        <mxCell id="Vi3ZRumh8DsF4_LrH-LR-10" value="" style="endArrow=classic;html=1;rounded=0;fontSize=12;startSize=8;endSize=8;curved=1;entryX=0;entryY=0.5;entryDx=0;entryDy=0;" parent="1" target="Vi3ZRumh8DsF4_LrH-LR-6" edge="1">
          <mxGeometry width="50" height="50" relative="1" as="geometry">
            <mxPoint x="-176" y="235" as="sourcePoint" />
            <mxPoint x="6" y="188" as="targetPoint" />
          </mxGeometry>
        </mxCell>
        <mxCell id="Vi3ZRumh8DsF4_LrH-LR-11" value="" style="endArrow=classic;html=1;rounded=0;fontSize=12;startSize=8;endSize=8;curved=1;entryX=0;entryY=0.5;entryDx=0;entryDy=0;" parent="1" target="Vi3ZRumh8DsF4_LrH-LR-7" edge="1">
          <mxGeometry width="50" height="50" relative="1" as="geometry">
            <mxPoint x="-176" y="250" as="sourcePoint" />
            <mxPoint x="6" y="313" as="targetPoint" />
          </mxGeometry>
        </mxCell>
        <mxCell id="Vi3ZRumh8DsF4_LrH-LR-32" style="edgeStyle=none;curved=1;rounded=0;orthogonalLoop=1;jettySize=auto;html=1;exitX=0.5;exitY=1;exitDx=0;exitDy=0;entryX=1;entryY=0;entryDx=0;entryDy=0;fontSize=12;startSize=8;endSize=8;" parent="1" source="Vi3ZRumh8DsF4_LrH-LR-33" target="Vi3ZRumh8DsF4_LrH-LR-6" edge="1">
          <mxGeometry relative="1" as="geometry">
            <mxPoint x="285" y="85" as="sourcePoint" />
          </mxGeometry>
        </mxCell>
        <mxCell id="Vi3ZRumh8DsF4_LrH-LR-26" style="edgeStyle=none;curved=1;rounded=0;orthogonalLoop=1;jettySize=auto;html=1;exitX=0.5;exitY=1;exitDx=0;exitDy=0;entryX=0.5;entryY=0;entryDx=0;entryDy=0;fontSize=12;startSize=8;endSize=8;" parent="1" source="Vi3ZRumh8DsF4_LrH-LR-22" target="Vi3ZRumh8DsF4_LrH-LR-4" edge="1">
          <mxGeometry relative="1" as="geometry" />
        </mxCell>
        <mxCell id="Vi3ZRumh8DsF4_LrH-LR-22" value="Sorgenti" style="rounded=0;whiteSpace=wrap;html=1;fontSize=16;" parent="1" vertex="1">
          <mxGeometry x="-3" y="-105" width="120" height="60" as="geometry" />
        </mxCell>
        <mxCell id="Vi3ZRumh8DsF4_LrH-LR-33" value="Articles.json" style="rounded=0;whiteSpace=wrap;html=1;fontSize=16;" parent="1" vertex="1">
          <mxGeometry x="225" y="15" width="120" height="60" as="geometry" />
        </mxCell>
        <mxCell id="Vi3ZRumh8DsF4_LrH-LR-34" value="&lt;div&gt;Terms.txt&lt;/div&gt;" style="rounded=0;whiteSpace=wrap;html=1;fontSize=16;" parent="1" vertex="1">
          <mxGeometry x="225" y="267" width="120" height="60" as="geometry" />
        </mxCell>
        <mxCell id="Vi3ZRumh8DsF4_LrH-LR-35" value="Prima" style="text;html=1;align=center;verticalAlign=middle;resizable=0;points=[];autosize=1;strokeColor=none;fillColor=none;fontSize=16;" parent="1" vertex="1">
          <mxGeometry x="51" y="99" width="60" height="31" as="geometry" />
        </mxCell>
        <mxCell id="Vi3ZRumh8DsF4_LrH-LR-36" value="Dopo" style="text;html=1;align=center;verticalAlign=middle;resizable=0;points=[];autosize=1;strokeColor=none;fillColor=none;fontSize=16;" parent="1" vertex="1">
          <mxGeometry x="51.5" y="215" width="56" height="31" as="geometry" />
        </mxCell>
      </root>
    </mxGraphModel>
  </diagram>
</mxfile>
